<svg width="40" height="40" viewBox="0 0 40 40" fill="none" xmlns="http://www.w3.org/2000/svg">
<path d="M38.3334 20C38.3334 30.1252 30.1252 38.3333 20 38.3333C9.8748 38.3333 1.66669 30.1252 1.66669 20C1.66669 9.87477 9.8748 1.66666 20 1.66666" stroke="#606580" stroke-opacity="0.25" stroke-width="2" stroke-linecap="round"/>
<path d="M20 1.66666C9.8748 1.66666 1.66669 9.87477 1.66669 20C1.66669 30.1252 9.8748 38.3333 20 38.3333C26.0264 38.3333 31.3736 35.4256 34.7154 30.9367" stroke="white" stroke-width="2" stroke-linecap="round"/>
<path d="M19.55 14.15L13.05 25.4C12.85 25.75 13.1 26.2 13.5 26.2H26.5C26.9 26.2 27.15 25.75 26.95 25.4L20.45 14.15C20.25 13.8 19.75 13.8 19.55 14.15Z" stroke="#606580" stroke-miterlimit="10" stroke-linecap="round" stroke-linejoin="round"/>
<path d="M20 18.75V21.3" stroke="#606580" stroke-miterlimit="10" stroke-linecap="round" stroke-linejoin="round"/>
<path d="M20 23.35V23.6" stroke="#606580" stroke-miterlimit="10" stroke-linecap="round" stroke-linejoin="round"/>
<path d="M31 16C35.4183 16 39 12.4183 39 8C39 3.58172 35.4183 0 31 0C26.5817 0 23 3.58172 23 8C23 12.4183 26.5817 16 31 16Z" fill="#FF1D25"/>
<path d="M29.6411 3.56641V10H28.8281V4.58154L27.189 5.1792V4.44531L29.5137 3.56641H29.6411ZM36.0483 6.29102V7.2666C36.0483 7.79102 36.0015 8.2334 35.9077 8.59375C35.814 8.9541 35.6792 9.24414 35.5034 9.46387C35.3276 9.68359 35.1152 9.84326 34.8662 9.94287C34.6201 10.0396 34.3418 10.0879 34.0312 10.0879C33.7852 10.0879 33.5581 10.0571 33.3501 9.99561C33.1421 9.93408 32.9546 9.83594 32.7876 9.70117C32.6235 9.56348 32.4829 9.38477 32.3657 9.16504C32.2485 8.94531 32.1592 8.67871 32.0977 8.36523C32.0361 8.05176 32.0054 7.68555 32.0054 7.2666V6.29102C32.0054 5.7666 32.0522 5.32715 32.146 4.97266C32.2427 4.61816 32.3789 4.33398 32.5547 4.12012C32.7305 3.90332 32.9414 3.74805 33.1875 3.6543C33.4365 3.56055 33.7148 3.51367 34.0225 3.51367C34.2715 3.51367 34.5 3.54443 34.708 3.60596C34.9189 3.66455 35.1064 3.75977 35.2705 3.8916C35.4346 4.02051 35.5737 4.19336 35.688 4.41016C35.8052 4.62402 35.8945 4.88623 35.9561 5.19678C36.0176 5.50732 36.0483 5.87207 36.0483 6.29102ZM35.231 7.39844V6.15479C35.231 5.86768 35.2134 5.61572 35.1782 5.39893C35.146 5.1792 35.0977 4.9917 35.0332 4.83643C34.9688 4.68115 34.8867 4.55518 34.7871 4.4585C34.6904 4.36182 34.5776 4.2915 34.4487 4.24756C34.3228 4.20068 34.1807 4.17725 34.0225 4.17725C33.8291 4.17725 33.6577 4.21387 33.5083 4.28711C33.3589 4.35742 33.2329 4.47021 33.1304 4.62549C33.0308 4.78076 32.9546 4.98438 32.9019 5.23633C32.8491 5.48828 32.8228 5.79443 32.8228 6.15479V7.39844C32.8228 7.68555 32.8389 7.93896 32.8711 8.15869C32.9062 8.37842 32.9575 8.56885 33.0249 8.72998C33.0923 8.88818 33.1743 9.01855 33.271 9.12109C33.3677 9.22363 33.479 9.2998 33.605 9.34961C33.7339 9.39648 33.876 9.41992 34.0312 9.41992C34.2305 9.41992 34.4048 9.38184 34.5542 9.30566C34.7036 9.22949 34.8281 9.11084 34.9277 8.94971C35.0303 8.78564 35.1064 8.57617 35.1562 8.32129C35.2061 8.06348 35.231 7.75586 35.231 7.39844Z" fill="white"/>
</svg>
